HIERARCHY
ROOT Hips
{
	OFFSET 0.000000 0.000000 0.000000
	CHANNELS 6 Xposition Yposition Zposition Zrotation Yrotation Xrotation 
	JOINT LHipJoint
	{
		OFFSET 0.000000 0.000000 0.000000
		CHANNELS 3 Zrotation Yrotation Xrotation
		JOINT LeftUpLeg
		{
			OFFSET 1.363060 -1.794630 0.839290
			CHANNELS 3 Zrotation Yrotation Xrotation
			JOINT LeftLeg
			{
				OFFSET 2.448110 -6.726130 0.000000
				CHANNELS 3 Zrotation Yrotation Xrotation
				JOINT LeftFoot
				{
					OFFSET 2.562200 -7.039590 0.000000
					CHANNELS 3 Zrotation Yrotation Xrotation
					JOINT LeftToeBase
					{
						OFFSET 0.157640 -0.433110 2.322550
						CHANNELS 3 Zrotation Yrotation Xrotation
						End Site
						{
							OFFSET 0.000000 0.000000 0.000000
						}
					}
				}
			}
		}
	}
	JOINT RHipJoint
	{
		OFFSET 0.000000 0.000000 0.000000
		CHANNELS 3 Zrotation Yrotation Xrotation
		JOINT RightUpLeg
		{
			OFFSET -1.305520 -1.794630 0.839290
			CHANNELS 3 Zrotation Yrotation Xrotation
			JOINT RightLeg
			{
				OFFSET -2.542530 -6.985550 0.000000
				CHANNELS 3 Zrotation Yrotation Xrotation
				JOINT RightFoot
				{
					OFFSET -2.568260 -7.056230 0.000000
					CHANNELS 3 Zrotation Yrotation Xrotation
					JOINT RightToeBase
					{
						OFFSET -0.164730 -0.452590 2.363150
						CHANNELS 3 Zrotation Yrotation Xrotation
						End Site
						{
							OFFSET 0.000000 0.000000 0.000000
						}
					}
				}
			}
		}
	}
	JOINT LowerBack
	{
		OFFSET 0.000000 0.000000 0.000000
		CHANNELS 3 Zrotation Yrotation Xrotation
		JOINT Spine
		{
			OFFSET 0.028270 2.035590 -0.193380
			CHANNELS 3 Zrotation Yrotation Xrotation
			JOINT Spine1
			{
				OFFSET 0.056720 2.048850 -0.042750
				CHANNELS 3 Zrotation Yrotation Xrotation
				JOINT Neck
				{
					OFFSET 0.000000 0.000000 0.000000
					CHANNELS 3 Zrotation Yrotation Xrotation
					JOINT Neck1
					{
						OFFSET -0.054170 1.746240 0.172020
						CHANNELS 3 Zrotation Yrotation Xrotation
						JOINT Head
						{
							OFFSET 0.104070 1.761360 -0.123970
							CHANNELS 3 Zrotation Yrotation Xrotation
							End Site
							{
								OFFSET 0.000000 0.000000 0.000000
							}
						}
					}
				}
				JOINT LeftShoulder
				{
					OFFSET 0.000000 0.000000 0.000000
					CHANNELS 3 Zrotation Yrotation Xrotation
					JOINT LeftArm
					{
						OFFSET 3.362410 1.200890 -0.311210
						CHANNELS 3 Zrotation Yrotation Xrotation
						JOINT LeftForeArm
						{
							OFFSET 4.983000 -0.000000 -0.000000
							CHANNELS 3 Zrotation Yrotation Xrotation
							JOINT LeftHand
							{
								OFFSET 3.483560 -0.000000 -0.000000
								CHANNELS 3 Zrotation Yrotation Xrotation
								JOINT LeftFingerBase
								{
									OFFSET 0.000000 0.000000 0.000000
									CHANNELS 3 Zrotation Yrotation Xrotation
									JOINT LeftHandIndex1
									{
										OFFSET 0.715260 -0.000000 -0.000000
										CHANNELS 3 Zrotation Yrotation Xrotation
										End Site
										{
											OFFSET 0.000000 0.000000 0.000000
										}
									}
								}
								JOINT LThumb
								{
									OFFSET 0.000000 0.000000 0.000000
									CHANNELS 3 Zrotation Yrotation Xrotation
									End Site
									{
										OFFSET 0.000000 0.000000 0.000000
									}
								}
							}
						}
					}
				}
				JOINT RightShoulder
				{
					OFFSET 0.000000 0.000000 0.000000
					CHANNELS 3 Zrotation Yrotation Xrotation
					JOINT RightArm
					{
						OFFSET -3.136600 1.374050 -0.404650
						CHANNELS 3 Zrotation Yrotation Xrotation
						JOINT RightForeArm
						{
							OFFSET -5.241900 -0.000000 -0.000000
							CHANNELS 3 Zrotation Yrotation Xrotation
							JOINT RightHand
							{
								OFFSET -3.444170 -0.000000 -0.000000
								CHANNELS 3 Zrotation Yrotation Xrotation
								JOINT RightFingerBase
								{
									OFFSET 0.000000 0.000000 0.000000
									CHANNELS 3 Zrotation Yrotation Xrotation
									JOINT RightHandIndex1
									{
										OFFSET -0.622530 -0.000000 -0.000000
										CHANNELS 3 Zrotation Yrotation Xrotation
										End Site
										{
											OFFSET 0.000000 0.000000 0.000000
										}
									}
								}
								JOINT RThumb
								{
									OFFSET 0.000000 0.000000 0.000000
									CHANNELS 3 Zrotation Yrotation Xrotation
									End Site
									{
										OFFSET 0.000000 0.000000 0.000000
									}
								}
							}
						}
					}
				}
			}
		}
	}
}
MOTION
Frames: 5
Frame Time: 0.008333
6.224177 16.902313 -7.122813 -171.991734 39.868383 -165.506814 -12.865718 5.302307 1.676849 -9.076529 4.392973 2.987153 -0.649354 2.266073 29.408766 0.194326 -10.764645 17.621112 -4.367599 -0.000000 -38.063300 6.055984 -1.281937 6.201869 14.910636 17.663761 -29.264219 4.235668 -0.465320 14.303806 1.867622 11.241511 5.449142 1.979300 0.000000 -41.037200 8.582791 -5.559298 -8.914278 1.631453 -6.808320 -4.447481 -5.904259 -6.899418 0.647569 8.412355 -17.627964 -7.391557 -3.622564 -0.293714 0.189578 0.000000 0.000000 0.000000 -6.761940 -0.773174 -0.220181 -74.834033 -12.051545 14.709418 -2.058265 -48.646948 -0.028455 7.054725 -2.758745 -0.188088 -0.071914 0.281396 0.000001 0.000000 0.000000 0.000000 0.000000 0.000000 0.000000 15.533764 -17.679549 0.247399 55.054046 -5.670873 -17.127858 2.837643 39.341424 0.005423 -2.621299 3.698272 -0.090850 0.136588 -0.093846 0.000000 0.000000 0.000000 0.000000 0.000000 0.000000 0.000000 
6.303472 16.919643 -7.245876 -171.565940 39.346876 -165.401404 -13.062499 5.331155 1.521778 -8.097469 5.809104 1.665796 -0.475342 2.343933 31.693010 0.370568 -10.525422 19.422520 -4.670300 0.000001 -37.340601 6.012331 -1.366495 6.139607 15.605020 17.155746 -28.526566 4.332020 -0.449246 14.391312 1.881779 11.446078 4.875870 1.928600 0.000000 -37.837500 8.856380 -5.486186 -8.833548 1.668160 -6.765342 -4.434744 -5.935084 -6.852708 0.655824 8.508777 -17.503745 -7.412914 -3.641445 -0.295111 0.183053 0.000000 0.000000 0.000000 -6.667859 -0.594597 -0.220075 -75.377905 -11.457275 14.371502 -2.043400 -47.439079 -0.029208 7.444289 -2.696658 -0.193691 -0.071949 0.270390 0.000000 0.000000 0.000000 0.000000 0.000000 0.000000 0.000000 15.729225 -17.530258 0.199674 55.025418 -5.175882 -16.418550 2.845473 39.251022 0.005427 -2.636785 3.700146 -0.091346 0.136002 -0.092673 0.000000 0.000000 0.000000 0.000000 0.000000 0.000000 0.000000 
6.382074 16.937551 -7.365078 -171.175493 38.768871 -165.301916 -13.235187 5.332027 1.369435 -7.159557 7.143054 0.261521 -0.320492 2.413543 34.045629 0.547990 -10.052160 21.009848 -4.820700 -0.000000 -36.165800 5.970894 -1.442272 6.089480 16.242238 16.664462 -27.764771 4.431547 -0.409824 14.333928 1.887470 11.583669 4.269309 1.854700 -0.000000 -34.599600 9.083520 -5.415102 -8.758107 1.693688 -6.719422 -4.419054 -5.972869 -6.802879 0.675454 8.626995 -17.406603 -7.450366 -3.659709 -0.296342 0.172392 0.000000 0.000000 0.000000 -6.516387 -0.404346 -0.217470 -75.884705 -10.868412 14.095520 -2.027318 -46.211742 -0.029690 7.809976 -2.591419 -0.195290 -0.071778 0.258830 0.000000 0.000000 0.000000 0.000000 0.000000 0.000000 0.000000 15.950476 -17.400125 0.151799 55.066757 -4.662431 -15.656249 2.854740 39.171353 0.005471 -2.612152 3.695759 -0.090341 0.135136 -0.091355 0.000000 0.000000 0.000000 0.000000 0.000000 0.000000 0.000000 
6.459866 16.955909 -7.480477 -170.829092 38.134270 -165.209850 -13.380640 5.305272 1.225773 -6.289268 8.343998 -1.210560 -0.184904 2.479978 36.443593 0.719988 -9.320998 22.314707 -4.781900 0.000000 -34.904700 5.932642 -1.510479 6.050923 16.816160 16.193947 -26.996170 4.528659 -0.351225 14.144134 1.883080 11.632876 3.684345 1.764399 -0.000000 -31.595200 9.264612 -5.343880 -8.693030 1.708096 -6.668887 -4.401949 -6.017454 -6.748318 0.704181 8.761128 -17.334262 -7.500815 -3.677729 -0.297478 0.158441 0.000000 0.000000 0.000000 -6.323818 -0.213110 -0.211055 -76.336595 -10.278980 13.885930 -2.011083 -44.989988 -0.029831 8.128838 -2.443049 -0.191886 -0.071254 0.246894 0.000000 0.000000 0.000000 0.000000 0.000000 0.000000 0.000000 16.190533 -17.286300 0.105744 55.179854 -4.138894 -14.860286 2.865039 39.105612 0.005562 -2.550086 3.693072 -0.088135 0.134007 -0.090036 0.000000 0.000000 0.000000 0.000000 0.000000 0.000000 0.000000 
6.536459 16.974517 -7.592480 -170.522643 37.443303 -165.118883 -13.500418 5.252306 1.094509 -5.496800 9.379257 -2.744588 -0.066518 2.548801 38.874045 0.879469 -8.347065 23.256839 -4.541700 0.000000 -33.690600 5.894939 -1.572807 6.024614 17.329504 15.754690 -26.231937 4.620452 -0.276341 13.827039 1.867136 11.570775 3.164668 1.663100 0.000001 -29.000700 9.409352 -5.269558 -8.642595 1.713327 -6.612271 -4.384759 -6.068860 -6.687568 0.740814 8.905278 -17.281988 -7.562424 -3.695906 -0.298567 0.141635 0.000000 0.000000 0.000000 -6.111269 -0.017033 -0.199507 -76.719116 -9.695460 13.752854 -1.996471 -43.791169 -0.029599 8.381899 -2.254730 -0.183075 -0.070351 0.234799 -0.000000 0.000000 0.000000 0.000000 0.000000 0.000000 0.000000 16.443647 -17.182810 0.062278 55.358095 -3.613086 -14.040281 2.875543 39.060031 0.005696 -2.461019 3.697873 -0.085226 0.132678 -0.088826 0.000000 0.000000 0.000000 0.000000 0.000000 0.000000 0.000000 
